<svg width="156" height="60" viewBox="0 0 156 60" fill="none" xmlns="http://www.w3.org/2000/svg">
<g clip-path="url(#clip0_1_201)">
<path d="M32.1173 38.6093C29.2774 38.6131 26.9395 40.8299 26.9395 43.6037C26.9395 46.3776 29.2774 48.572 32.1173 48.5794C34.9835 48.5682 37.3027 46.3514 37.3027 43.6037C37.3027 40.8561 34.9835 38.6131 32.1173 38.6093ZM32.0462 46.3028C30.5625 46.3028 29.4385 45.0916 29.4385 43.6075C29.4385 42.1234 30.6374 40.886 32.1136 40.886C33.5898 40.886 34.7475 42.0935 34.7475 43.6075C34.7475 45.1215 33.5336 46.3028 32.0424 46.3028H32.0462Z" fill="white"/>
<path d="M8.34774 35.1701C9.14203 35.9514 10.0487 36.6318 10.9367 37.0729L11.0303 37.1215L12.559 35.3159L12.4129 35.2336C10.9592 34.4486 9.82018 33.4579 9.07834 32.2056C8.34024 30.9757 7.96183 29.5402 7.96183 27.8318V26.2243H5.22676V27.6598C5.22676 29.514 4.80339 30.972 4.01659 32.2505C3.13237 33.6636 1.82479 34.8037 0.150026 35.8579L0.00390625 35.9477L1.66743 37.6636L1.75735 37.6112C2.74272 37.0729 3.79179 36.2467 4.70597 35.3271C5.49652 34.5234 6.18216 33.6561 6.59429 32.8374C6.99519 33.6374 7.61339 34.4561 8.35148 35.1589L8.34774 35.1701Z" fill="white"/>
<path d="M5.39258 47.4019H16.8499V39.5925H5.39258V47.4019ZM7.96279 41.7981H14.2684V45.2H7.96279V41.7981Z" fill="white"/>
<path d="M16.8897 25.7645H14.3457V38.6991H16.8897V32.9757H19.8758V30.6766H16.8897V25.7645Z" fill="white"/>
<path d="M81.864 35.8318C82.6996 36.557 83.6587 37.1663 84.5579 37.5589L84.6516 37.6037L86.0266 35.7458L85.8805 35.6748C84.5691 35.0019 83.3964 34.1719 82.5572 33.1626C81.6992 32.1271 81.1896 30.8822 81.1896 29.3794V28.9383H84.9775V26.7103H74.6854V28.9383H78.4733V29.4729C78.4733 30.8374 78.0162 32.1121 77.2669 33.2149C76.3827 34.5383 75.0901 35.6075 73.8387 36.2953L73.6738 36.385L75.3636 38.1308L75.4572 38.086C76.3714 37.5701 77.3755 36.7888 78.2373 35.914C78.9267 35.1925 79.5449 34.4299 79.9233 33.671C80.3804 34.4075 81.081 35.1477 81.864 35.8355V35.8318Z" fill="white"/>
<path d="M100.291 41.8505H109.553V47.4019H112.127V39.6411H100.291V41.8505Z" fill="white"/>
<path d="M106.682 32.957C106.682 31.7346 106.135 30.6093 105.318 29.7495H107.862V27.5477H103.007V25.1215H100.249V27.5477H95.2773V29.7495H97.8738C97.0832 30.6093 96.5287 31.7234 96.5287 32.957C96.5287 35.6822 98.7805 37.8991 101.598 37.9065C104.415 37.8991 106.682 35.6822 106.686 32.957H106.682ZM98.9828 32.8561C98.9828 31.3458 100.26 30.0673 101.594 30.0673C102.928 30.0673 104.202 31.3533 104.206 32.8561C104.206 34.3402 102.928 35.6224 101.594 35.6262C100.257 35.6224 98.9828 34.3402 98.9828 32.8561Z" fill="white"/>
<path d="M112.126 25.7645H109.582V38.7439H112.126V33.7907H115.116V31.4953H112.126V25.7645Z" fill="white"/>
<path d="M90.5458 25.7645H87.998V38.7439H90.5458V32.9757H93.5319V30.6766H90.5458V25.7645Z" fill="white"/>
<path d="M148.443 35.5514H139.834V29.0093H146.394V26.7065H137.256V37.7869H148.443V35.5514Z" fill="white"/>
<path d="M35.2298 29.615H31.2246V31.8916H35.2298V39.1514H37.7775V25.7645H35.2298V29.615Z" fill="white"/>
<path d="M28.7567 35.5065C29.551 36.2878 30.4765 36.9682 31.3682 37.428L31.4656 37.4841L32.998 35.6785L32.8481 35.5925C31.3944 34.8374 30.2779 33.8467 29.5323 32.6131C28.7717 31.3906 28.3933 29.9028 28.3933 28.1906V26.228H25.6507V28.0299C25.6507 29.8841 25.2349 31.3383 24.4631 32.5944C23.5788 34.0336 22.2525 35.1776 20.574 36.228L20.4316 36.3177L22.0989 38.0411L22.1813 37.9888C23.1705 37.4505 24.1933 36.6691 25.1037 35.7757C25.9243 34.957 26.6136 34.071 27.0258 33.2112C27.4192 33.9888 28.0224 34.7888 28.7492 35.5065H28.7567Z" fill="white"/>
<path d="M85.0801 38.6093C82.2401 38.6131 79.9022 40.8299 79.8984 43.6037C79.9022 46.3514 82.2401 48.572 85.0801 48.5794C87.9425 48.5682 90.2655 46.3514 90.2655 43.6037C90.2655 40.8561 87.9425 38.6131 85.0801 38.6093ZM85.0051 46.3028C83.5252 46.3028 82.3975 45.0916 82.3975 43.6075C82.3975 42.1234 83.5927 40.886 85.0801 40.886C86.5675 40.886 87.7102 42.0935 87.714 43.6075C87.7102 45.0916 86.4963 46.3028 85.0051 46.3028Z" fill="white"/>
<path d="M143.576 40.5084H140.998V47.4019H153.047V45.129H143.576V40.5084Z" fill="white"/>
<path d="M152.987 31.7608V25.7645H150.443V41.7234H152.987V34.0523H156V31.7608H152.987Z" fill="white"/>
<path d="M131.437 31.6112H129.294V26.1309H126.889V46.8449H129.294V34.1047H131.437V47.4019H133.936V25.7645H131.437V31.6112Z" fill="white"/>
<path d="M123.352 34.4822C122.778 33.2299 122.542 31.8355 122.542 30.1159V29.2972H125.431V26.9645H117.031V29.2972H120.013V30.157C120.013 31.7832 119.8 33.1103 119.283 34.3439C118.687 35.757 117.683 37.0355 116.083 38.3963L115.971 38.5009L117.552 40.0635L117.649 39.9888C118.444 39.4019 119.275 38.5533 119.972 37.6785C120.557 36.9383 121.051 36.1757 121.366 35.5028C121.684 36.157 122.183 36.9084 122.763 37.6112C123.442 38.4336 124.202 39.2149 124.933 39.6785L125.034 39.7458L126.364 38.157L126.259 38.0598C124.828 36.8149 123.94 35.7047 123.355 34.4785L123.352 34.4822Z" fill="white"/>
<path d="M7.23779 54.8673C6.01638 54.4337 5.78783 54.1421 5.78783 53.6411C5.78783 53.1402 6.14002 52.7439 6.97553 52.7439C7.58623 52.7439 7.99837 52.9421 8.44047 53.3084L8.87509 52.7739C8.36179 52.3664 7.83726 52.1234 7.02049 52.1234C5.87775 52.1234 5.10594 52.7028 5.10594 53.6823C5.10594 54.5608 5.55554 54.9832 6.87062 55.458C7.98713 55.858 8.32807 56.1832 8.32807 56.7439C8.32807 57.3907 7.82227 57.7869 7.00925 57.7869C6.37981 57.7869 5.84778 57.4991 5.38694 57.058L4.93359 57.5626C5.41317 58.0449 6.15875 58.4038 6.98677 58.4038C8.26063 58.4038 9.00997 57.6636 9.00997 56.7103C9.00997 55.757 8.59409 55.3496 7.24154 54.8598L7.23779 54.8673Z" fill="white"/>
<path d="M11.7783 53.6523C11.1826 53.6523 10.6394 53.7981 10.2385 54.015L10.4857 54.5458C10.8604 54.329 11.2538 54.1944 11.7334 54.1944C12.4003 54.1944 12.73 54.5234 12.73 55.2075V55.7495C12.4602 55.6 12.0481 55.4841 11.5835 55.4841C10.6768 55.4841 9.83008 55.9215 9.83008 56.9495C9.83008 58.0523 10.5832 58.4075 11.295 58.4075C11.9507 58.4075 12.4003 58.1047 12.7263 57.757V58.314H13.3782V55.129C13.3782 54.0673 12.76 53.6523 11.7783 53.6523ZM12.7263 57.1925C12.449 57.5738 11.9994 57.8804 11.4074 57.8804C10.8492 57.8804 10.4708 57.5813 10.4708 56.9009C10.4708 56.329 10.8754 56 11.5461 56C12.1043 56 12.4265 56.1009 12.7225 56.2654V57.1888L12.7263 57.1925Z" fill="white"/>
<path d="M19.9549 55.6411V58.314H20.6105V55.529C20.6105 54.1944 20.0298 53.6523 19.0931 53.6523C18.3513 53.6523 17.9766 53.9963 17.7069 54.4337C17.4896 53.9963 17.0962 53.6523 16.4517 53.6523C15.9085 53.6523 15.5226 53.9103 15.2903 54.3065V53.7495H14.6309V58.3178H15.2903V55.6449C15.2903 54.6318 15.6837 54.2168 16.3131 54.2168C16.9426 54.2168 17.2985 54.5981 17.2985 55.6449V58.3178H17.9542V55.6449C17.9542 54.6318 18.3513 54.2168 18.9732 54.2168C19.6364 54.2168 19.9586 54.5981 19.9586 55.6449L19.9549 55.6411Z" fill="white"/>
<path d="M23.2314 55.6636C22.4558 55.3122 22.2235 55.1589 22.2235 54.7738C22.2235 54.4449 22.5008 54.2056 22.9841 54.2056C23.4674 54.2056 23.7671 54.3365 24.1231 54.6168L24.4902 54.1346C24.1418 53.8467 23.6547 53.6523 23.0215 53.6523C22.1935 53.6523 21.5941 54.1196 21.5941 54.815C21.5941 55.5477 21.9762 55.8243 22.8942 56.2168C23.7034 56.5645 23.9769 56.7738 23.9769 57.1477C23.9769 57.5925 23.681 57.8542 23.0515 57.8542C22.5982 57.8542 22.171 57.6673 21.8039 57.3495L21.418 57.828C21.8563 58.1794 22.4033 58.4112 23.0328 58.4112C23.8271 58.4112 24.6026 58.0224 24.6026 57.1252C24.6026 56.3065 24.0968 56.0561 23.2314 55.6673V55.6636Z" fill="white"/>
<path d="M28.4285 56.415C28.4285 57.4168 27.9265 57.8393 27.297 57.8393C26.559 57.8393 26.2105 57.3981 26.2105 56.415V53.7458H25.5586V56.5271C25.5586 57.8393 26.1918 58.4037 27.1584 58.4037C27.7392 58.4037 28.1625 58.1346 28.4248 57.7533V58.3103H29.0805V53.7421H28.4248V56.4112L28.4285 56.415Z" fill="white"/>
<path d="M33.7073 58.314V55.529C33.7073 54.2131 33.0703 53.6523 32.0999 53.6523C31.5267 53.6523 31.0996 53.9178 30.8411 54.3065V53.7495H30.1816V58.3178H30.8411V55.6449C30.8411 54.6467 31.3319 54.2168 31.9725 54.2168C32.7031 54.2168 33.0553 54.6617 33.0553 55.6449V58.3178H33.711L33.7073 58.314Z" fill="white"/>
<path d="M35.7677 59.4991L35.9775 59.9963C37.6785 59.9402 38.2967 59.2822 38.2967 57.9065V53.7458H37.6448V54.2579C37.3226 53.8916 36.9329 53.6523 36.356 53.6523C35.3931 53.6523 34.625 54.4822 34.625 56.1047C34.625 57.7271 35.3519 58.4075 36.2698 58.4075C36.888 58.4075 37.3263 58.1047 37.6486 57.757V57.9925C37.6486 59.0542 37.3001 59.4542 35.7715 59.4991H35.7677ZM36.4309 57.843C35.7078 57.843 35.2694 57.2449 35.2694 56.0972C35.2694 54.8673 35.6441 54.2168 36.4047 54.2168C36.9479 54.2168 37.39 54.5234 37.6411 54.9009V57.1851C37.3189 57.5888 36.918 57.843 36.4271 57.843H36.4309Z" fill="white"/>
<path d="M45.5177 55.2262C45.5177 53.1365 44.3375 52.2206 42.734 52.2206H41.1191V58.314H42.6103C44.2439 58.314 45.5177 57.4355 45.5177 55.2224V55.2262ZM41.801 52.8374H42.6815C44.0865 52.8374 44.8358 53.6935 44.8358 55.2486C44.8358 57.0019 44.0153 57.6972 42.6965 57.6972H41.7973V52.8374H41.801Z" fill="white"/>
<path d="M47.2631 54.314V53.7495H46.6074V58.3178H47.2631V55.6374C47.2631 54.7626 47.619 54.258 48.2597 54.258C48.5632 54.258 48.7655 54.3252 48.9453 54.4299L49.1102 53.772C48.9566 53.7009 48.7355 53.6598 48.3983 53.6598C47.9075 53.6598 47.4692 53.9514 47.2668 54.3215L47.2631 54.314Z" fill="white"/>
<path d="M53.0267 57.8804L52.7233 57.4094C52.3036 57.6897 51.9889 57.843 51.4531 57.843C50.7075 57.843 50.243 57.2262 50.1793 56.2542H53.2328C53.2553 56.1458 53.2628 56.0523 53.2628 55.8953C53.2628 54.5907 52.6146 53.6523 51.4194 53.6523C50.3291 53.6523 49.5273 54.5533 49.5273 56.0037C49.5273 57.8019 50.5464 58.4075 51.3857 58.4075C52.0751 58.4075 52.4797 58.2243 53.0305 57.8804H53.0267ZM51.4119 54.2131C52.2137 54.2131 52.5996 54.8299 52.6521 55.7196H50.1793C50.2542 54.6991 50.73 54.2131 51.4119 54.2131Z" fill="white"/>
<path d="M55.4396 58.4075C56.0952 58.4075 56.5486 58.1047 56.8708 57.757V58.314H57.5264V55.129C57.5264 54.0673 56.9083 53.6523 55.9191 53.6523C55.3234 53.6523 54.7839 53.7981 54.383 54.015L54.6303 54.5458C55.0049 54.329 55.3983 54.1944 55.8779 54.1944C56.5486 54.1944 56.8708 54.5234 56.8708 55.2075V55.7495C56.6048 55.6 56.1926 55.4841 55.7355 55.4841C54.8251 55.4841 53.9746 55.9215 53.9746 56.9495C53.9746 58.0523 54.7277 58.4075 55.4396 58.4075ZM55.6943 56.0037C56.2488 56.0037 56.5748 56.1047 56.8708 56.2692V57.1925C56.5935 57.5738 56.1477 57.8804 55.5594 57.8804C54.9712 57.8804 54.6228 57.5813 54.6228 56.9009C54.6228 56.329 55.0274 56 55.6981 56L55.6943 56.0037Z" fill="white"/>
<path d="M64.0976 55.6411V58.314H64.7495V55.529C64.7495 54.1944 64.1688 53.6523 63.2321 53.6523C62.4903 53.6523 62.1156 53.9963 61.8459 54.4337C61.6286 53.9963 61.2389 53.6523 60.5907 53.6523C60.0475 53.6523 59.6653 53.9103 59.4293 54.3065V53.7495H58.7773V58.3178H59.4293V55.6449C59.4293 54.6318 59.8227 54.2168 60.4521 54.2168C61.0815 54.2168 61.4375 54.5981 61.4375 55.6449V58.3178H62.0894V55.6449C62.0894 54.6318 62.4903 54.2168 63.1122 54.2168C63.7716 54.2168 64.0976 54.5981 64.0976 55.6449V55.6411Z" fill="white"/>
<path d="M69.646 54.8673C68.4246 54.4336 68.1998 54.1458 68.1998 53.6411C68.1998 53.1365 68.5482 52.7439 69.3837 52.7439C69.9982 52.7439 70.4066 52.9421 70.8487 53.3084L71.2833 52.7776C70.77 52.3701 70.2455 52.1271 69.4287 52.1271C68.286 52.1271 67.5179 52.7028 67.5179 53.6822C67.5179 54.5608 67.96 54.9869 69.2826 55.4542C70.3991 55.8579 70.74 56.1794 70.74 56.7439C70.74 57.3869 70.2342 57.7869 69.4212 57.7869C68.7918 57.7869 68.2597 57.4953 67.7951 57.0542L67.3418 57.5551C67.8214 58.0449 68.567 58.4 69.3912 58.4C70.6613 58.4 71.4144 57.6598 71.4144 56.7065C71.4144 55.7533 70.9985 55.3458 69.646 54.8561V54.8673Z" fill="white"/>
<path d="M74.1952 54.2168C74.656 54.2168 74.9632 54.3813 75.2929 54.6804L75.6863 54.1907C75.3266 53.8766 74.8546 53.6523 74.2364 53.6523C73.2772 53.6523 72.2656 54.3626 72.2656 56.0561C72.2656 57.6486 73.1836 58.4112 74.1952 58.4112C74.8358 58.4112 75.2817 58.1682 75.6676 57.7757L75.2742 57.3608C74.9632 57.6636 74.6635 57.8467 74.2214 57.8467C73.4084 57.8467 72.9288 57.1252 72.9288 56C72.9288 54.8748 73.4833 54.2168 74.1989 54.2168H74.1952Z" fill="white"/>
<path d="M78.4886 53.6523C77.9154 53.6523 77.4845 53.9178 77.2222 54.3065V52.157H76.5703V58.3178H77.2222V55.6449C77.2222 54.643 77.7243 54.2168 78.3575 54.2168C79.0918 54.2168 79.4365 54.6579 79.4365 55.6449V58.3178H80.0922V55.529C80.0922 54.2168 79.4552 53.6523 78.4849 53.6523H78.4886Z" fill="white"/>
<path d="M83.0142 53.6523C81.9015 53.6523 81.0098 54.4822 81.0098 56.0374C81.0098 57.5925 81.864 58.4112 82.9805 58.4112C84.097 58.4112 84.9887 57.5514 84.9887 56C84.9887 54.4486 84.127 53.6523 83.0142 53.6523ZM83.003 57.8467C82.2087 57.8467 81.6729 57.2224 81.6729 56.0187C81.6729 54.815 82.2087 54.2168 83.003 54.2168C83.7973 54.2168 84.3331 54.8187 84.3331 56.0187C84.3331 57.2187 83.7935 57.8467 83.003 57.8467Z" fill="white"/>
<path d="M86.6342 52.157H85.9785V58.3178H86.6342V52.157Z" fill="white"/>
<path d="M89.6242 53.6523C89.0322 53.6523 88.489 53.8019 88.0918 54.0187L88.3354 54.5533C88.71 54.3327 89.1034 54.2019 89.583 54.2019C90.2536 54.2019 90.5759 54.5346 90.5759 55.2075V55.7533C90.3061 55.6 89.894 55.4879 89.4369 55.4879C88.5264 55.4879 87.6797 55.9252 87.6797 56.9533C87.6797 58.0598 88.429 58.4112 89.1446 58.4112C89.8003 58.4112 90.2536 58.1122 90.5759 57.7608V58.3178H91.2315V55.1327C91.2315 54.0673 90.6133 53.6523 89.6242 53.6523ZM90.5759 57.1925C90.2986 57.5738 89.849 57.8804 89.2608 57.8804C88.7063 57.8804 88.3279 57.5813 88.3279 56.9047C88.3279 56.329 88.7325 56.0075 89.4032 56.0075C89.9614 56.0075 90.2836 56.1047 90.5796 56.2692V57.1925H90.5759Z" fill="white"/>
<path d="M93.1342 54.314V53.7458H92.4785V58.3178H93.1342V55.6374C93.1342 54.7664 93.4901 54.2542 94.127 54.2542C94.4343 54.2542 94.6329 54.3215 94.8164 54.4262L94.9813 53.7645C94.8277 53.6972 94.6066 53.6523 94.2694 53.6523C93.7786 53.6523 93.3402 53.9439 93.1342 54.314Z" fill="white"/>
<path d="M97.4953 55.6636C96.716 55.3122 96.4837 55.1552 96.4837 54.7701C96.4837 54.4411 96.7647 54.2019 97.2443 54.2019C97.7239 54.2019 98.0311 54.3365 98.3871 54.6131L98.7542 54.1346C98.402 53.8468 97.9187 53.6486 97.2893 53.6486C96.4575 53.6486 95.8581 54.1159 95.8581 54.815C95.8581 55.5477 96.244 55.8243 97.1619 56.2131C97.9712 56.5608 98.2447 56.7701 98.2447 57.144C98.2447 57.5925 97.945 57.8505 97.323 57.8505C96.8659 57.8505 96.4388 57.6636 96.0716 57.3458L95.6895 57.8243C96.1241 58.1757 96.6748 58.4075 97.3043 58.4075C98.0948 58.4075 98.8741 58.0187 98.8741 57.1215C98.8741 56.2991 98.3683 56.0524 97.5028 55.6598L97.4953 55.6636Z" fill="white"/>
<path d="M101.852 53.6523C101.275 53.6523 100.848 53.9178 100.586 54.3065V52.157H99.9336V58.3178H100.586V55.6449C100.586 54.643 101.084 54.2168 101.721 54.2168C102.451 54.2168 102.8 54.6579 102.8 55.6449V58.3178H103.455V55.529C103.455 54.2168 102.819 53.6523 101.852 53.6523Z" fill="white"/>
<path d="M105.4 53.7458H104.748V58.3178H105.4V53.7458Z" fill="white"/>
<path d="M105.089 51.9963C104.819 51.9963 104.609 52.2056 104.609 52.471C104.609 52.7215 104.819 52.9309 105.089 52.9309C105.329 52.9309 105.542 52.7215 105.542 52.471C105.542 52.2056 105.329 51.9963 105.089 51.9963Z" fill="white"/>
<path d="M108.753 53.6523C108.135 53.6523 107.697 53.9551 107.375 54.3065V53.7495H106.723V60H107.375V57.8056C107.697 58.1682 108.09 58.4112 108.667 58.4112C109.626 58.4112 110.394 57.5738 110.394 55.9589C110.394 54.3439 109.668 53.6523 108.753 53.6523ZM108.615 57.8467C108.075 57.8467 107.629 57.5402 107.375 57.1589V54.8785C107.697 54.4822 108.101 54.2168 108.588 54.2168C109.315 54.2168 109.754 54.8187 109.754 55.9664C109.754 57.1925 109.379 57.8467 108.615 57.8467Z" fill="white"/>
<path d="M113.86 52.8411H116.767V52.2243H113.178V58.3178H113.86V55.4766H115.534V54.8636H113.86V52.8411Z" fill="white"/>
<path d="M118.758 53.6523C117.645 53.6523 116.75 54.4822 116.75 56.0374C116.75 57.5925 117.608 58.4112 118.721 58.4112C119.834 58.4112 120.729 57.5514 120.729 56C120.729 54.4486 119.875 53.6523 118.758 53.6523ZM118.739 57.8467C117.945 57.8467 117.413 57.2224 117.413 56.0187C117.413 54.815 117.945 54.2168 118.739 54.2168C119.534 54.2168 120.077 54.8187 120.077 56.0187C120.077 57.2187 119.538 57.8467 118.739 57.8467Z" fill="white"/>
<path d="M124.345 56.415C124.345 57.4168 123.85 57.843 123.213 57.843C122.479 57.843 122.13 57.4019 122.13 56.415V53.7458H121.475V56.5309C121.475 57.8468 122.112 58.4112 123.082 58.4112C123.651 58.4112 124.079 58.1458 124.341 57.7608V58.3178H124.996V53.7458H124.341V56.415H124.345Z" fill="white"/>
<path d="M128.016 53.6523C127.443 53.6523 127.015 53.9178 126.749 54.3065V53.7495H126.094V58.3215H126.749V55.6486C126.749 54.6467 127.248 54.2206 127.885 54.2206C128.619 54.2206 128.967 54.6617 128.967 55.6486V58.3215H129.619V55.5327C129.619 54.2206 128.982 53.6561 128.012 53.6561L128.016 53.6523Z" fill="white"/>
<path d="M133.561 54.2617C133.239 53.8953 132.845 53.6523 132.268 53.6523C131.309 53.6523 130.541 54.4822 130.541 56.1084C130.541 57.7346 131.264 58.4112 132.182 58.4112C132.8 58.4112 133.235 58.1121 133.561 57.7607V58.3178H134.216V52.157H133.561V54.2654V54.2617ZM133.561 57.185C133.239 57.585 132.834 57.8467 132.347 57.8467C131.624 57.8467 131.185 57.2486 131.185 56.0972C131.185 54.8673 131.56 54.2168 132.321 54.2168C132.864 54.2168 133.302 54.5196 133.561 54.9047V57.185Z" fill="white"/>
<path d="M136.993 53.6523C136.397 53.6523 135.858 53.8019 135.457 54.0187L135.701 54.5533C136.079 54.3327 136.472 54.2019 136.948 54.2019C137.619 54.2019 137.941 54.5346 137.941 55.2075V55.7533C137.671 55.6 137.259 55.4879 136.798 55.4879C135.895 55.4879 135.045 55.9252 135.045 56.9533C135.045 58.0598 135.798 58.4112 136.514 58.4112C137.169 58.4112 137.619 58.1122 137.941 57.7608V58.3178H138.597V55.1327C138.597 54.0673 137.979 53.6523 136.993 53.6523ZM137.941 57.1925C137.664 57.5738 137.218 57.8804 136.622 57.8804C136.068 57.8804 135.693 57.5813 135.693 56.9047C135.693 56.329 136.094 56.0075 136.765 56.0075C137.323 56.0075 137.645 56.1047 137.941 56.2692V57.1925Z" fill="white"/>
<path d="M140.682 52.157H140.027V53.7495H139.461V54.2991H140.027V57.3832C140.027 58.1383 140.334 58.415 140.903 58.415C141.248 58.415 141.492 58.3664 141.746 58.2579L141.791 57.6935C141.582 57.7794 141.409 57.8243 141.143 57.8243C140.795 57.8243 140.682 57.686 140.682 57.2748V54.2991H141.818V53.7495H140.682V52.157Z" fill="white"/>
<path d="M143.302 51.9963C143.032 51.9963 142.818 52.2056 142.818 52.471C142.818 52.7215 143.032 52.9309 143.302 52.9309C143.549 52.9309 143.759 52.7215 143.759 52.471C143.759 52.2056 143.549 51.9963 143.302 51.9963Z" fill="white"/>
<path d="M143.613 53.7458H142.961V58.3178H143.613V53.7458Z" fill="white"/>
<path d="M146.61 53.6523C145.497 53.6523 144.605 54.4822 144.605 56.0374C144.605 57.5925 145.46 58.4112 146.576 58.4112C147.693 58.4112 148.581 57.5514 148.581 56C148.581 54.4486 147.726 53.6523 146.61 53.6523ZM146.587 57.8467C145.797 57.8467 145.265 57.2224 145.265 56.0187C145.265 54.815 145.797 54.2168 146.587 54.2168C147.378 54.2168 147.925 54.8187 147.925 56.0187C147.925 57.2187 147.385 57.8467 146.587 57.8467Z" fill="white"/>
<path d="M151.444 53.6523C150.867 53.6523 150.439 53.9178 150.177 54.3065V53.7495H149.521V58.3215H150.177V55.6486C150.177 54.6467 150.675 54.2206 151.312 54.2206C152.05 54.2206 152.395 54.6617 152.395 55.6486V58.3215H153.047V55.5327C153.047 54.2206 152.41 53.6561 151.444 53.6561V53.6523Z" fill="white"/>
<path d="M83.8389 10.1421L78.8071 8.06355L83.8389 5.98505L82.9435 3.83178L77.9117 5.91028L79.9986 0.88972L77.8405 0L75.7573 5.02056L73.6704 0L71.5161 0.88972L73.5993 5.91028L68.5675 3.83178L67.6758 5.98505L72.7038 8.06355L67.6758 10.1421L68.5675 12.2953L73.5993 10.2131L71.5161 15.2336L73.6742 16.1271L75.7573 11.1065L77.8405 16.1271L79.9986 15.2336L77.9117 10.2131L82.9435 12.2953L83.8389 10.1421Z" fill="white"/>
<path d="M51.2684 24.157H54.6179V15.2336H43.1719V18.2393H51.2684V24.157Z" fill="white"/>
<path d="M64.3288 24.157H67.6746V15.2336H56.2285V18.2393H64.3288V24.157Z" fill="white"/>
<path d="M42.6328 28.7701H64.3298V33.3645H67.6755V25.7645H42.6328V28.7701Z" fill="white"/>
<path d="M50.7285 47.4019H67.6709V34.9121H50.7285V47.4019ZM54.078 37.9177H64.3289V44.3963H54.078V37.9177Z" fill="white"/>
</g>
<defs>
<clipPath id="clip0_1_201">
<rect width="156" height="60" fill="white"/>
</clipPath>
</defs>
</svg>
