<svg width="14" height="14" viewBox="0 0 14 14" fill="none" xmlns="http://www.w3.org/2000/svg">
<mask id="mask0_32_902" style="mask-type:alpha" maskUnits="userSpaceOnUse" x="0" y="0" width="14" height="14">
<rect x="0.0332031" y="0.0344849" width="13.7931" height="13.7931" fill="#D9D9D9"/>
</mask>
<g mask="url(#mask0_32_902)">
<path d="M6.49796 7.36207H3.62439C3.50227 7.36207 3.39992 7.32074 3.31735 7.23808C3.23469 7.15541 3.19336 7.05302 3.19336 6.93089C3.19336 6.80867 3.23469 6.70632 3.31735 6.62385C3.39992 6.54129 3.50227 6.5 3.62439 6.5H6.49796V3.62644C6.49796 3.50431 6.53929 3.40197 6.62195 3.3194C6.70461 3.23674 6.80701 3.1954 6.92914 3.1954C7.05136 3.1954 7.1537 3.23674 7.23618 3.3194C7.31874 3.40197 7.36003 3.50431 7.36003 3.62644V6.5H10.2336C10.3557 6.5 10.4581 6.54133 10.5406 6.624C10.6233 6.70666 10.6646 6.80905 10.6646 6.93118C10.6646 7.0534 10.6233 7.15575 10.5406 7.23822C10.4581 7.32079 10.3557 7.36207 10.2336 7.36207H7.36003V10.2356C7.36003 10.3578 7.3187 10.4601 7.23603 10.5427C7.15337 10.6253 7.05097 10.6667 6.92885 10.6667C6.80663 10.6667 6.70428 10.6253 6.62181 10.5427C6.53924 10.4601 6.49796 10.3578 6.49796 10.2356V7.36207Z" fill="#3D3D3D"/>
</g>
</svg>
