<svg xmlns="http://www.w3.org/2000/svg" width="49.444" height="44.5" viewBox="0 0 49.444 44.5">
  <path id="photo_camera_24dp_FILL0_wght400_GRAD0_opsz24" d="M104.722-804.153a10.728,10.728,0,0,0,7.88-3.245,10.729,10.729,0,0,0,3.245-7.88,10.729,10.729,0,0,0-3.245-7.88,10.729,10.729,0,0,0-7.88-3.245,10.729,10.729,0,0,0-7.88,3.245,10.729,10.729,0,0,0-3.245,7.88,10.729,10.729,0,0,0,3.245,7.88A10.728,10.728,0,0,0,104.722-804.153Zm0-4.944a5.968,5.968,0,0,1-4.388-1.792,5.968,5.968,0,0,1-1.792-4.388,5.968,5.968,0,0,1,1.792-4.388,5.968,5.968,0,0,1,4.388-1.792,5.968,5.968,0,0,1,4.388,1.792,5.968,5.968,0,0,1,1.792,4.388,5.968,5.968,0,0,1-1.792,4.388A5.968,5.968,0,0,1,104.722-809.1ZM84.944-795.5a4.761,4.761,0,0,1-3.492-1.452A4.761,4.761,0,0,1,80-800.444v-29.667a4.761,4.761,0,0,1,1.452-3.492,4.761,4.761,0,0,1,3.492-1.452h7.787l3.09-3.337a4.96,4.96,0,0,1,1.638-1.174A4.822,4.822,0,0,1,99.469-840h10.507a4.822,4.822,0,0,1,2.009.433,4.96,4.96,0,0,1,1.638,1.174l3.09,3.337H124.5a4.761,4.761,0,0,1,3.492,1.452,4.761,4.761,0,0,1,1.452,3.492v29.667a4.761,4.761,0,0,1-1.452,3.492A4.761,4.761,0,0,1,124.5-795.5Zm0-4.944H124.5v-29.667H114.487l-4.512-4.944H99.469l-4.512,4.944H84.944ZM104.722-815.278Z" transform="translate(-80 840)" fill="#fff"/>
</svg>
