<svg xmlns="http://www.w3.org/2000/svg" width="15.069" height="20.093" viewBox="0 0 15.069 20.093">
  <path id="community_ico3" d="M163.014-872.968V-879a.972.972,0,0,1,.289-.716.972.972,0,0,1,.716-.289.972.972,0,0,1,.716.289.972.972,0,0,1,.289.716v6.028h1V-879a.972.972,0,0,1,.289-.716.972.972,0,0,1,.716-.289.972.972,0,0,1,.716.289.972.972,0,0,1,.289.716v6.028a3.761,3.761,0,0,1-.867,2.461,4.142,4.142,0,0,1-2.147,1.406v8.188a.972.972,0,0,1-.289.716.972.972,0,0,1-.716.289.972.972,0,0,1-.716-.289.972.972,0,0,1-.289-.716V-869.1a4.142,4.142,0,0,1-2.147-1.406,3.761,3.761,0,0,1-.866-2.461V-879a.972.972,0,0,1,.289-.716A.972.972,0,0,1,161-880a.972.972,0,0,1,.716.289.972.972,0,0,1,.289.716v6.028Zm10.046,5.023h-2.009a.972.972,0,0,1-.716-.289.972.972,0,0,1-.289-.716v-6.028a5.4,5.4,0,0,1,1.293-3.391A3.544,3.544,0,0,1,174.015-880a.952.952,0,0,1,.753.352,1.233,1.233,0,0,1,.3.829v17.907a.972.972,0,0,1-.289.716.972.972,0,0,1-.716.289.972.972,0,0,1-.716-.289.972.972,0,0,1-.289-.716Z" transform="translate(-160 880)" fill="#fff"/>
</svg>
