<svg xmlns="http://www.w3.org/2000/svg" width="25.582" height="17.907" viewBox="0 0 25.582 17.907">
  <path id="community_ico2" d="M80-743.372v-6.4a3.455,3.455,0,0,1,.352-1.567,4.425,4.425,0,0,1,.927-1.247v-3.582a3.7,3.7,0,0,1,1.119-2.718A3.7,3.7,0,0,1,85.116-760h5.116a3.478,3.478,0,0,1,1.375.272,4.358,4.358,0,0,1,1.183.751,4.357,4.357,0,0,1,1.183-.751A3.478,3.478,0,0,1,95.349-760h5.116a3.7,3.7,0,0,1,2.718,1.119,3.7,3.7,0,0,1,1.119,2.718v3.582a4.425,4.425,0,0,1,.927,1.247,3.455,3.455,0,0,1,.352,1.567v6.4a1.238,1.238,0,0,1-.368.911,1.238,1.238,0,0,1-.911.368,1.238,1.238,0,0,1-.911-.368,1.238,1.238,0,0,1-.368-.911v-1.279H82.558v1.279a1.238,1.238,0,0,1-.368.911,1.238,1.238,0,0,1-.911.368,1.238,1.238,0,0,1-.911-.368A1.238,1.238,0,0,1,80-743.372ZM94.07-753.6h7.675v-2.558a1.237,1.237,0,0,0-.368-.911,1.238,1.238,0,0,0-.911-.368H95.349a1.238,1.238,0,0,0-.911.368,1.237,1.237,0,0,0-.368.911Zm-10.233,0h7.675v-2.558a1.237,1.237,0,0,0-.368-.911,1.238,1.238,0,0,0-.911-.368H85.116a1.238,1.238,0,0,0-.911.368,1.237,1.237,0,0,0-.368.911Zm-1.279,6.4h20.466v-2.558a1.238,1.238,0,0,0-.368-.911,1.238,1.238,0,0,0-.911-.368H83.837a1.238,1.238,0,0,0-.911.368,1.238,1.238,0,0,0-.368.911Zm20.466,0h0Z" transform="translate(-80 760)" fill="#fff"/>
</svg>
