<svg xmlns="http://www.w3.org/2000/svg" width="20.093" height="20.093" viewBox="0 0 20.093 20.093">
  <path id="community_ico4" d="M123.349-822.14v.558a1.615,1.615,0,0,1-.488,1.186,1.615,1.615,0,0,1-1.186.488,1.615,1.615,0,0,1-1.186-.488,1.614,1.614,0,0,1-.488-1.186v-7.981a2.759,2.759,0,0,1,.028-.391,2.077,2.077,0,0,1,.084-.363l2.093-5.944a2.14,2.14,0,0,1,.809-1.088,2.2,2.2,0,0,1,1.312-.419H126.7v-1.116a1.08,1.08,0,0,1,.321-.8,1.08,1.08,0,0,1,.8-.321h4.465a1.08,1.08,0,0,1,.8.321,1.08,1.08,0,0,1,.321.8v1.116h2.372a2.2,2.2,0,0,1,1.312.419,2.14,2.14,0,0,1,.809,1.088l2.093,5.944a2.074,2.074,0,0,1,.084.363,2.759,2.759,0,0,1,.028.391v7.981a1.614,1.614,0,0,1-.488,1.186,1.615,1.615,0,0,1-1.186.488,1.615,1.615,0,0,1-1.186-.488,1.615,1.615,0,0,1-.488-1.186v-.558Zm-.223-10.046h13.842l-1.172-3.349H124.3Zm-.893,2.233v0Zm2.791,4.465a1.615,1.615,0,0,0,1.186-.488,1.615,1.615,0,0,0,.488-1.186,1.615,1.615,0,0,0-.488-1.186,1.615,1.615,0,0,0-1.186-.488,1.615,1.615,0,0,0-1.186.488,1.615,1.615,0,0,0-.488,1.186,1.615,1.615,0,0,0,.488,1.186A1.615,1.615,0,0,0,125.023-825.489Zm10.046,0a1.615,1.615,0,0,0,1.186-.488,1.615,1.615,0,0,0,.488-1.186,1.615,1.615,0,0,0-.488-1.186,1.615,1.615,0,0,0-1.186-.488,1.615,1.615,0,0,0-1.186.488,1.615,1.615,0,0,0-.488,1.186,1.615,1.615,0,0,0,.488,1.186A1.615,1.615,0,0,0,135.07-825.489Zm-12.837,1.116H137.86v-5.581H122.233Z" transform="translate(-120 840)" fill="#fff"/>
</svg>
