<svg xmlns="http://www.w3.org/2000/svg" width="23.917" height="20.982" viewBox="0 0 23.917 20.982">
  <path id="community_ico1" d="M44.077-831.018a2.056,2.056,0,0,1-1.739-.883,2.437,2.437,0,0,1-.435-2,20.878,20.878,0,0,0,.408-2.772q.109-1.386.136-2.772a3.812,3.812,0,0,1-1.78-1.386A3.655,3.655,0,0,1,40-842.977v-.761a1.927,1.927,0,0,1,.367-1.141,2.162,2.162,0,0,1,.965-.761,26.469,26.469,0,0,0,4.865-2.555,48.237,48.237,0,0,0,4.4-3.316,2.161,2.161,0,0,1,.639-.367,2.108,2.108,0,0,1,.72-.122,2.108,2.108,0,0,1,.72.122,2.161,2.161,0,0,1,.639.367,48.236,48.236,0,0,0,4.4,3.316,26.469,26.469,0,0,0,4.865,2.555,2.162,2.162,0,0,1,.965.761,1.927,1.927,0,0,1,.367,1.141v.761a3.655,3.655,0,0,1-.666,2.147,3.812,3.812,0,0,1-1.78,1.386q.027,1.386.136,2.772a20.879,20.879,0,0,0,.408,2.772,2.437,2.437,0,0,1-.435,2,2.056,2.056,0,0,1-1.739.883Zm1.25-14.133H58.59a38.019,38.019,0,0,1-3.438-2.174q-1.644-1.169-3.193-2.5-1.549,1.332-3.193,2.5A38.018,38.018,0,0,1,45.327-845.151Zm9.349,3.8a1.572,1.572,0,0,0,1.155-.476,1.572,1.572,0,0,0,.476-1.155H53.046a1.572,1.572,0,0,0,.476,1.155A1.572,1.572,0,0,0,54.676-841.346Zm-5.436,0a1.572,1.572,0,0,0,1.155-.476,1.572,1.572,0,0,0,.476-1.155H47.61a1.572,1.572,0,0,0,.476,1.155A1.572,1.572,0,0,0,49.241-841.346Zm-5.436,0a1.572,1.572,0,0,0,1.155-.476,1.572,1.572,0,0,0,.476-1.155H42.174a1.572,1.572,0,0,0,.476,1.155A1.572,1.572,0,0,0,43.8-841.346Zm.163,8.154h2.908q.245-1.631.38-3.234t.217-3.234a5.213,5.213,0,0,1-.5-.285,2.749,2.749,0,0,1-.448-.367,3.9,3.9,0,0,1-.87.652,4.231,4.231,0,0,1-1.033.408q-.054,1.549-.19,3.057A24.305,24.305,0,0,1,43.968-833.193Zm5.11,0h5.762q-.217-1.495-.34-2.99t-.2-3.017a3.608,3.608,0,0,1-1.277-.34,3.8,3.8,0,0,1-1.06-.747,3.8,3.8,0,0,1-1.06.747,3.608,3.608,0,0,1-1.277.34q-.082,1.522-.2,3.017T49.078-833.193Zm7.963,0h2.908a24.305,24.305,0,0,1-.462-3q-.136-1.508-.19-3.057a4.588,4.588,0,0,1-1.033-.394,3.27,3.27,0,0,1-.87-.666,2.749,2.749,0,0,1-.448.367,5.212,5.212,0,0,1-.5.285q.082,1.631.231,3.234T57.041-833.193Zm3.071-8.154a1.572,1.572,0,0,0,1.155-.476,1.572,1.572,0,0,0,.476-1.155H58.481a1.572,1.572,0,0,0,.476,1.155A1.572,1.572,0,0,0,60.112-841.346Z" transform="translate(-40 852)" fill="#fff"/>
</svg>
