<svg xmlns="http://www.w3.org/2000/svg" xmlns:xlink="http://www.w3.org/1999/xlink" width="276" height="46.956" viewBox="0 0 276 46.956">
  <defs>
    <clipPath id="clip-path">
      <rect id="사각형_22" data-name="사각형 22" width="178.5" height="46.956" fill="none"/>
    </clipPath>
  </defs>
  <g id="logo" transform="translate(-331 -27.044)">
    <g id="그룹_2" data-name="그룹 2" transform="translate(331 27.045)">
      <g id="그룹_1" data-name="그룹 1" transform="translate(0 0)" clip-path="url(#clip-path)">
        <path id="패스_1" data-name="패스 1" d="M66.662,23.477c0,12.967-14.923,23.478-33.333,23.478S0,36.444,0,23.477,14.923,0,33.328,0,66.662,10.513,66.662,23.477" transform="translate(0 0)" fill="#0d3896"/>
        <path id="패스_2" data-name="패스 2" d="M38.355,44.049C24.1,43.408,23.7,42.76,26.317,42.7c0,0,53.567-2.3,13.306-5.293,0,0-6.465-.516,10.816-1.051,0,0,4.447-.781-18.613-2.34,0,0,4.608-2.1,19.912-1.5l-5-10.273s-.819-4.261-1.173-5.688S44.284.453,44.284.453c-1.51.19-3.326.325-3.326.325C34.655.432,25.4,3.572,25.4,3.572l-2.075.422-.148,2.684a20.378,20.378,0,0,1,.148,5.51c.13,2.378-3.083,7.722-3.083,7.722l1.988,5.7L22.139,29l2.078,5.086s12.966,1.342,16.62,1.164c0,0,8.271.4-3.023.926,0,0-31.722-.122-23.372,1.2,0,0,14.922,1.282,22.739,1.822,0,0,8.613,1-13.515,2.305,0,0-10.37.8-.408,2.735,0,0,16.379,2.558,30.17.016,0,0,4.526-1.293-1.631-.707,0,0-11.979.571-13.442.5" transform="translate(-3.703 -0.128)" fill="#fff"/>
        <path id="패스_3" data-name="패스 3" d="M76.732,30.275s-9.561-.523-10.918,2.156c0,0-2.98,4.251,8.258,3.311,0,0-.813-2.949,2.66-5.467" transform="translate(-18.584 -8.583)" fill="#fc0"/>
        <path id="패스_4" data-name="패스 4" d="M45.216,23.628s-9.533-.536-10.888,2.221c0,0-2.972,4.372,8.233,3.4,0,0-.809-3.033,2.655-5.624" transform="translate(-9.644 -6.696)" fill="#40a629"/>
        <path id="패스_5" data-name="패스 5" d="M60.125,10.3S50.819,9.778,49.5,12.439c0,0-2.9,4.218,8.035,3.287,0,0-.791-2.93,2.589-5.429" transform="translate(-13.955 -2.912)" fill="#ff7f00"/>
        <path id="패스_6" data-name="패스 6" d="M120.235,21.161a2.933,2.933,0,0,1-2.341,1.171,2.886,2.886,0,0,1-2.318-1.151,4.142,4.142,0,0,1,0-5.257,2.9,2.9,0,0,1,2.318-1.132,3.036,3.036,0,0,1,2.341,1.071,3.839,3.839,0,0,1,.965,2.66,4.05,4.05,0,0,1-.965,2.638m21.629-1.351h-5.139V11.935h-8v1.64h.789a1.491,1.491,0,0,1,1.188.46,1.454,1.454,0,0,1,.395.952V26.3a10.02,10.02,0,0,1-1.818.346c-.712.076-1.775.114-2.751.114h-5.865v-1.9a9.364,9.364,0,0,0,4.262-2.411,5.5,5.5,0,0,0,1.6-3.888,5.78,5.78,0,0,0-2.569-4.756,10.885,10.885,0,0,0-12.4,0,5.784,5.784,0,0,0-2.55,4.756,5.5,5.5,0,0,0,1.6,3.888,9.217,9.217,0,0,0,4.18,2.411v1.9h-7.966v3.268h18.12c1.4,0,2.783-.026,3.719-.081a13.18,13.18,0,0,0,2.431-.344v4.309h5.632V23.023h5.139Zm-4.746,18.638h-17.39a.659.659,0,0,1-.435-.132.441.441,0,0,1-.156-.361V31.947h-8.2v1.638h.793a1.617,1.617,0,0,1,1.182.395,1.294,1.294,0,0,1,.4.954v4.2a2.444,2.444,0,0,0,.791,2.018,3.792,3.792,0,0,0,2.412.639h20.61Z" transform="translate(-30.328 -3.37)" fill="#fff"/>
        <path id="패스_7" data-name="패스 7" d="M160.159,17.563a1.311,1.311,0,0,0-.385-.951,1.516,1.516,0,0,0-1.141-.393h-.765V14.58h28.074v3.084h-20.12v7.829a.586.586,0,0,0,.21.491.815.815,0,0,0,.516.165h19.585v3.019H164.546a5.06,5.06,0,0,1-3.339-.9,3.774,3.774,0,0,1-1.048-3Zm15.712,19.768h13.314v3.244H156.822V37.331h13.384l-.044-3.276a1.187,1.187,0,0,0-.362-.9,1.357,1.357,0,0,0-.973-.344h-.61V31.2h7.611Z" transform="translate(-44.523 -4.139)" fill="#fff"/>
        <path id="패스_8" data-name="패스 8" d="M213.932,31.725v7.081a.461.461,0,0,0,.151.361.626.626,0,0,0,.419.132h19.119v3.088H211.395a3.574,3.574,0,0,1-2.329-.64,2.491,2.491,0,0,1-.76-2.016V34.714a1.311,1.311,0,0,0-.383-.952,1.527,1.527,0,0,0-1.146-.393h-.761V31.725Zm18.131-7.05h4.228v3.279h-12.53v6.993H217.87V27.955H203.554V24.676h22.917a4.816,4.816,0,0,0,.743-2.065,30.3,30.3,0,0,0,.133-3.169V17.606a.647.647,0,0,0-.15-.494,1.017,1.017,0,0,0-.612-.132h-19.81V13.849h25.862a.427.427,0,0,1,.285.083.3.3,0,0,1,.094.244v4.857a26.092,26.092,0,0,1-.208,3.66,4.533,4.533,0,0,1-.745,1.983" transform="translate(-57.791 -3.932)" fill="#fff"/>
      </g>
    </g>
    <line id="선_1" data-name="선 1" y2="26" transform="translate(522 40)" fill="none" stroke="#fff" stroke-width="1" opacity="0.2"/>
    <text id="청산도" transform="translate(532 60)" fill="#fff" font-size="27" font-family="OTSBAggroL, SB AggroOTF"><tspan x="0" y="0">청산도</tspan></text>
  </g>
</svg>
