<svg xmlns="http://www.w3.org/2000/svg" width="8.214" height="8.214" viewBox="0 0 8.214 8.214">
  <path id="more_f" d="M203.52-755.306h-2.934a.568.568,0,0,1-.418-.169.568.568,0,0,1-.169-.418.568.568,0,0,1,.169-.418.568.568,0,0,1,.418-.169h2.934v-2.934a.568.568,0,0,1,.169-.418.568.568,0,0,1,.418-.169.568.568,0,0,1,.418.169.568.568,0,0,1,.169.418v2.934h2.934a.568.568,0,0,1,.418.169.568.568,0,0,1,.169.418.568.568,0,0,1-.169.418.568.568,0,0,1-.418.169h-2.934v2.934a.568.568,0,0,1-.169.418.568.568,0,0,1-.418.169.568.568,0,0,1-.418-.169.568.568,0,0,1-.169-.418Z" transform="translate(-200 760)" fill="#666"/>
</svg>
