<?xml version="1.0" encoding="UTF-8"?>
<svg id="_레이어_1" data-name="레이어 1" xmlns="http://www.w3.org/2000/svg" version="1.1" viewBox="0 0 300 300">
  <defs>
    <style>
      .cls-1 {
        fill: #e80a4d;
        stroke-width: 0px;
      }
    </style>
  </defs>
  <circle class="cls-1" cx="12.7" cy="136.3" r="4.5"/>
  <circle class="cls-1" cx="67.5" cy="106.6" r="4.5"/>
  <path class="cls-1" d="M226.9,153.6c-13.9-5.6-6.7-28.6-3.7-34.2,0,0-20.1,23.5-40.4,23.5s-29.8-27.5-32.8-39.7c-3,12.2-12.4,39.7-32.8,39.7s-40.4-23.5-40.4-23.5c3,5.6,10.2,28.6-3.7,34.2-13.7,5.6-46.5-6.8-46.5-6.8,34.4,29.1,35.6,57.1,35.6,57.1,46.1-6.5,87.7-6.3,87.7-6.3,0,0,41.6-.2,87.7,6.3,0,0,1.2-28,35.6-57.1.1,0-32.7,12.4-46.3,6.8Z"/>
  <circle class="cls-1" cx="287.2" cy="136.2" r="4.5"/>
  <circle class="cls-1" cx="232.4" cy="106.6" r="4.5"/>
  <circle class="cls-1" cx="150" cy="87.8" r="4.5"/>
</svg>