<svg xmlns="http://www.w3.org/2000/svg" width="11.682" height="12" viewBox="0 0 11.682 12">
  <path id="arrow_forward_24dp_FILL0_wght400_GRAD0_opsz24" d="M9.38,6.617H.77a.77.77,0,1,1,0-1.541H9.38L5.605,1.3A.706.706,0,0,1,5.384.761.775.775,0,0,1,5.624.222.812.812,0,0,1,6.164,0,.706.706,0,0,1,6.7.222l5.085,5.085a.676.676,0,0,1,.164.25.891.891,0,0,1,0,.578.676.676,0,0,1-.164.25L6.7,11.471a.719.719,0,0,1-.53.212.785.785,0,0,1-.549-.212.767.767,0,0,1,0-1.1Z" transform="translate(11.682) rotate(90)" fill="#fff" opacity="0.8"/>
</svg>
